<?xml version="1.0" standalone="no"?>
<!DOCTYPE svg PUBLIC "-//W3C//DTD SVG 20010904//EN"
 "http://www.w3.org/TR/2001/REC-SVG-20010904/DTD/svg10.dtd">
<svg version="1.0" xmlns="http://www.w3.org/2000/svg"
 width="512.000000pt" height="512.000000pt" viewBox="0 0 512.000000 512.000000"
 preserveAspectRatio="xMidYMid meet">
<g transform="translate(0.000000,512.000000) scale(0.100000,-0.100000)"
fill="#000000" stroke="none">
<path d="M2380 5109 c-25 -4 -74 -11 -110 -14 -143 -15 -420 -85 -595 -150
-539 -201 -1007 -603 -1290 -1110 -238 -425 -355 -862 -355 -1325 0 -494
130 -936 395 -1345 94 -145 289 -382 410 -497 467 -446 1067 -693 1690 -697
622 -3 1223 247 1690 704 118 116 282 315 370 450 218 332 360 704 420 1098
25 162 25 512 0 674 -60 394 -202 766 -420 1098 -88 135 -252 334 -370 450
-451 441 -1026 675 -1655 671 -91 -1 -171 -4 -180 -7z m-130 -984 c379 -60
700 -280 900 -619 69 -117 141 -289 170 -406 31 -122 40 -345 20 -470 -48
-293 -198 -545 -435 -730 -174 -136 -363 -220 -575 -257 -114 -19 -336 -13
-450 12 -371 84 -677 324 -830 652 -88 189 -122 360 -112 570 14 311 120
569 322 788 182 197 415 333 660 384 127 27 126 27 215 51 109 29 114 29
115 25z"/>
<path d="M2345 3699 c-293 -47 -534 -240 -647 -519 -42 -102 -52 -161 -52
-290 0 -209 60 -372 194 -525 73 -84 221 -184 325 -220 76 -26 85 -27 220
-23 127 3 150 7 225 35 200 75 357 212 460 403 67 124 85 199 85 350 0 151
-18 226 -85 350 -99 185 -252 324 -435 395 -102 40 -200 54 -290 44z"/>
</g>
</svg>